<svg id="Layer_1" data-name="Layer 1" xmlns="http://www.w3.org/2000/svg" viewBox="0 0 744.15 382.04"><defs><style>.cls-1,.cls-2{fill:#fff;}.cls-2{opacity:0.4;}</style></defs><title>logo</title><g id="logo"><path class="cls-1" d="M437.59,65.77a25.61,25.61,0,0,0-18.14-7.42H408.61c-41.81,0-81.33-1.2-117.91-3.15l-9.46,9,1.69,4.11c41.83,2.37,87.63,3.75,136.46,3.48h.06a12.46,12.46,0,0,1,8.71,3.55,12.06,12.06,0,0,1,3.54,8.56V289a12.06,12.06,0,0,1-3.81,8.92,12.2,12.2,0,0,1-9,3.21c-62.32-3.63-223-8.11-370.26,28.77a12,12,0,0,1-10.36-2.28,11.77,11.77,0,0,1-4.62-9.64l.06-5.08v-.21L36.34,64.9,36.46,54A12.17,12.17,0,0,1,50.72,42.13c17.06,3.07,43.76,7.48,78.39,12L140.22,42c-38.92-4.83-68.65-9.73-87.06-13A25.62,25.62,0,0,0,23.1,53.88L20.27,317.82a23.29,23.29,0,0,0,.27,3.87L20.27,349A19.45,19.45,0,0,0,44.39,368c62.34-15.61,127.39-24,186.49-28.14,11.41-.81,22.59-1.47,33.46-2a1544.78,1544.78,0,0,1,160.21.66,19.46,19.46,0,0,0,20.54-19.49V83.85A25.43,25.43,0,0,0,437.59,65.77Zm-197.7-.36c1,0,2,0,3,0A115.17,115.17,0,0,1,262.23,67a.23.23,0,0,0,.12,0c3.52.21,7,.42,10.61.66l-2.41-5.83,7.78-7.35C230,51.65,187.1,47.57,151.21,43.3L140,55.5C168.75,59,202.32,62.58,239.89,65.41Z" transform="translate(-20.27 -18.17)"/><path class="cls-1" d="M305.65,391.66c-2.27,1.94-6.09,2.14-6.43,2.21l-3.48.33L282,395.67c-18.47,1.68-36.95,3.15-55.49,3.82s-37.15,1.07-55.83.07a555.18,555.18,0,0,1,54.82-10.45c18.35-2.81,36.76-4.88,55.23-6.76l13.19-1.07-5.76-4.42c-3.68-2.81-7.29-5.69-10.91-8.57l-5.42-4.35a17.31,17.31,0,0,0-4.62-2.61,11,11,0,0,0-2.81-.67,15.46,15.46,0,0,0-8.17.81c-8,3.61-16.67,7.89-25.3,11.31,7.29-6.09,14.39-11.52,22.42-17.14a22.51,22.51,0,0,1,11.05-3.08,18.08,18.08,0,0,1,5,.34,21.31,21.31,0,0,1,7.9,3.14l6,3.75c3.94,2.48,7.83,5,11.71,7.57l5.76,3.81,2.88,1.94a15.5,15.5,0,0,1,4,3.22A10.55,10.55,0,0,1,305.65,391.66Z" transform="translate(-20.27 -18.17)"/><path class="cls-1" d="M264.35,325.92v34.74a15.46,15.46,0,0,0-8.17.81c-8,3.61-16.67,7.89-25.3,11.31V325.92Z" transform="translate(-20.27 -18.17)"/><path class="cls-2" d="M170.4,136.31a94.1,94.1,0,0,0,86.31,131.63h1.23a224.1,224.1,0,0,1-29.46,15.4l-6.88,3A107.95,107.95,0,1,1,312.48,98,94.14,94.14,0,0,0,170.4,136.31Z" transform="translate(-20.27 -18.17)"/><path class="cls-1" d="M278.33,54.51l-7.78,7.35L273,67.69l.78,1.92A111.81,111.81,0,0,0,262.35,67a.23.23,0,0,1-.12,0,115.17,115.17,0,0,0-19.34-1.62c-1,0-2,0-3,0a114.37,114.37,0,0,0-100.84,65.41L134.93,119l-29.19-3.84-6-.81-12.08-1.59L140,55.5l11.17-12.2,23-25.13L304.43,29.76Z" transform="translate(-20.27 -18.17)"/><path class="cls-1" d="M350.77,177.09c0,1.11.06,2.26.06,3.43A108,108,0,0,1,230.4,287.73c7.72-3.37,23.34-10.72,37.09-20.39,13.42-9.52,20.39-22.59,21.14-35.08,1.08-18.32-3-31.26-13.81-43.36l9.58-4.48a7.27,7.27,0,0,0,2.55-1.89c14.05,4.08,28.29,5.76,36.67.24,11-6.07,19.25-17.21,23.75-24.42.33-.48.6-.93.87-1.38s.57-.93.81-1.38a93.14,93.14,0,0,1,1.78,18.23C350.83,174.9,350.8,176,350.77,177.09Z" transform="translate(-20.27 -18.17)"/><circle class="cls-1" cx="312.03" cy="155.98" r="18.74" transform="translate(-56.21 113.11) rotate(-22.5)"/><path class="cls-2" d="M277.59,179.67l-1.14.53-8.22,3.85L225.78,203.9a2.72,2.72,0,0,1-3.86-2.45V153a2.72,2.72,0,0,1,3.86-2.45l51.81,24.24A2.69,2.69,0,0,1,277.59,179.67Z" transform="translate(-20.27 -18.17)"/><rect class="cls-1" x="79.46" y="93.1" width="6.01" height="60.06"/><rect class="cls-2" x="76.46" y="135.14" width="12.01" height="21.02"/><polygon class="cls-2" points="76.46 135.14 79.46 127.83 85.47 127.83 88.47 135.14 76.46 135.14"/></g><path class="cls-1" d="M489.18,197.41l3.44-.51a105.35,105.35,0,0,0,12.18-2.44,29.69,29.69,0,0,0,10-4.65,22.05,22.05,0,0,0,6.83-8.41c1.7-3.52,2.55-8.12,2.55-13.76a24.76,24.76,0,0,0-2.14-10.78,18.62,18.62,0,0,0-5.93-7.22,23.88,23.88,0,0,0-9.27-3.85,47.55,47.55,0,0,0-12-.79c-2.3.11-4.27.26-5.94.45s-3.72.45-6.17.77V245.4l-16.5-1q0-52,0-104,7.47-.93,16.5-1.77t17.69-1.33a68.45,68.45,0,0,1,18.41,1.1,33.94,33.94,0,0,1,12.94,5.47,22.9,22.9,0,0,1,7.6,9.44,32.17,32.17,0,0,1,2.49,13,34.69,34.69,0,0,1-3,14.3,29.51,29.51,0,0,1-9.2,11.46,45.81,45.81,0,0,1-15.79,7.47A82.17,82.17,0,0,1,491.2,202h-1.07Z" transform="translate(-20.27 -18.17)"/><path class="cls-1" d="M586.43,198l3.44-.56A97,97,0,0,0,602,194.71a28.66,28.66,0,0,0,10-5.13,24,24,0,0,0,6.82-9.25q2.55-5.81,2.56-15.13a29.87,29.87,0,0,0-2.14-11.87,20.4,20.4,0,0,0-5.94-8,22.84,22.84,0,0,0-9.26-4.29,43.51,43.51,0,0,0-12-.93q-3.45.16-5.94.47t-6.17.82V251L563.51,250V134.91q7.49-1,16.51-1.85t17.69-1.36a62.2,62.2,0,0,1,18.4,1.31,32.86,32.86,0,0,1,12.95,6.08,25.2,25.2,0,0,1,7.6,10.41,38.41,38.41,0,0,1,2.49,14.28,41.31,41.31,0,0,1-3,15.7,32.35,32.35,0,0,1-9.2,12.59,44.27,44.27,0,0,1-15.79,8.22q-9.57,2.94-22.74,2.77h-1.07Z" transform="translate(-20.27 -18.17)"/><path class="cls-1" d="M756.94,261.75C729.4,226,700.89,191,671.09,157.08h-.35q.22,14.11.47,25.73c.07,3.33.14,6.65.18,9.94s.08,6.31.12,9.06.08,5.13.12,7.13.06,3.37.06,4.12q0,21.57,0,43.13l-10.92-.62V127.94l7.24-.42c29.85,33,58.39,67,86,101.86h.12c-.16-9.4-.32-18.16-.36-26.17,0-3.39,0-6.85-.06-10.34s-.08-6.77-.12-9.86,0-5.83,0-8.25V123.65l10.92-.62V262.19Z" transform="translate(-20.27 -18.17)"/></svg>