<?xml version="1.0" encoding="utf-8"?>
<!-- Generator: Adobe Illustrator 24.0.0, SVG Export Plug-In . SVG Version: 6.00 Build 0)  -->
<svg version="1.1" id="Layer_1" xmlns="http://www.w3.org/2000/svg" xmlns:xlink="http://www.w3.org/1999/xlink" x="0px" y="0px"
	 viewBox="0 0 427.2 382" style="enable-background:new 0 0 427.2 382;" xml:space="preserve">
<style type="text/css">
	.st0{fill:#FFFFFF;}
	.st1{opacity:0.4;fill:#FFFFFF;enable-background:new    ;}
</style>
<title>logo</title>
<g id="logo">
	<path class="st0" d="M417.3,47.6c-4.8-4.8-11.3-7.4-18.1-7.4h-10.8c-41.8,0-81.3-1.2-117.9-3.2l-9.5,9l1.7,4.1
		c41.8,2.4,87.6,3.8,136.5,3.5h0.1c3.3,0,6.4,1.3,8.7,3.6c2.3,2.3,3.5,5.3,3.5,8.6v205.1c0,3.4-1.3,6.6-3.8,8.9
		c-2.4,2.2-5.7,3.4-9,3.2c-62.3-3.6-223-8.1-370.3,28.8c-3.6,0.9-7.4,0-10.4-2.3c-3-2.3-4.7-5.9-4.6-9.6l0.1-5.1v-0.2l2.6-247.8
		l0.1-10.9c0.1-6.7,5.6-12.1,12.3-12.1c0.7,0,1.3,0.1,2,0.2c17.1,3.1,43.8,7.5,78.4,12l11.1-12.1C81,19,51.3,14.1,32.9,10.8
		C19,8.4,5.7,17.7,3.2,31.6C3,33,2.8,34.3,2.8,35.7L0,299.6c0,1.3,0.1,2.6,0.3,3.9L0,330.8c-0.1,10.7,8.6,19.5,19.3,19.6
		c1.6,0,3.2-0.2,4.8-0.6c62.3-15.6,127.4-24,186.5-28.1c11.4-0.8,22.6-1.5,33.5-2c53.4-2.6,106.9-2.3,160.2,0.7
		c10.7,0.6,19.9-7.6,20.5-18.3c0-0.4,0-0.8,0-1.1V65.7C424.8,58.9,422.1,52.4,417.3,47.6z M219.6,47.2c1,0,2,0,3,0
		c6.5,0,12.9,0.5,19.3,1.6c0,0,0.1,0,0.1,0c3.5,0.2,7,0.4,10.6,0.7l-2.4-5.8l7.8-7.3c-48.3-2.8-91.2-6.9-127.1-11.2l-11.2,12.2
		C148.5,40.8,182.1,44.4,219.6,47.2z"/>
	<path class="st0" d="M285.4,373.5c-2.3,1.9-6.1,2.1-6.4,2.2l-3.5,0.3l-13.7,1.5c-18.5,1.7-37,3.1-55.5,3.8s-37.2,1.1-55.8,0.1
		c18.1-4.4,36.4-7.9,54.8-10.5c18.4-2.8,36.8-4.9,55.2-6.8l13.2-1.1l-5.8-4.4c-3.7-2.8-7.3-5.7-10.9-8.6l-5.4-4.4
		c-1.4-1.1-3-2-4.6-2.6c-0.9-0.3-1.8-0.6-2.8-0.7c-2.7-0.5-5.6-0.2-8.2,0.8c-8,3.6-16.7,7.9-25.3,11.3c7.3-6.1,14.4-11.5,22.4-17.1
		c3.4-2,7.2-3,11-3.1c1.7-0.1,3.4,0,5,0.3c2.8,0.5,5.5,1.6,7.9,3.1l6,3.8c3.9,2.5,7.8,5,11.7,7.6l5.8,3.8l2.9,1.9
		c1.5,0.8,2.9,1.9,4,3.2c3.7,4.5,3.1,11.1-1.4,14.9C285.8,373.2,285.6,373.3,285.4,373.5z"/>
	<path class="st0" d="M244.1,307.8v34.7c-2.7-0.5-5.6-0.2-8.2,0.8c-8,3.6-16.7,7.9-25.3,11.3v-46.9H244.1z"/>
	<path class="st1" d="M150.1,118.1c-20.7,47.7,1.1,103.1,48.8,123.8c11.8,5.2,24.6,7.8,37.5,7.8h1.2c-9.4,5.9-19.3,11-29.5,15.4
		l-6.9,3c-58.5-11.7-96.3-68.7-84.6-127.1s68.7-96.3,127.1-84.6c17.8,3.6,34.5,11.6,48.3,23.3C250.3,49,191.4,58,160.6,99.9
		C156.4,105.6,152.9,111.7,150.1,118.1z"/>
	<path class="st0" d="M258.1,36.3l-7.8,7.3l2.5,5.8l0.8,1.9c-3.8-1.1-7.6-1.9-11.4-2.6c0,0-0.1,0-0.1,0c-6.4-1.1-12.9-1.6-19.3-1.6
		c-1,0-2,0-3,0c-43.3,1-82.3,26.3-100.8,65.4l-4.1-11.8L85.5,97l-6-0.8l-12.1-1.6l52.3-57.3l11.2-12.2l23-25.1l130.3,11.6
		L258.1,36.3z"/>
	<path class="st0" d="M330.5,158.9c0,1.1,0.1,2.3,0.1,3.4c0,59.6-48.4,108-108.1,107.9c-4.1,0-8.3-0.2-12.4-0.7
		c7.7-3.4,23.3-10.7,37.1-20.4c13.4-9.5,20.4-22.6,21.1-35.1c1.1-18.3-3-31.3-13.8-43.4l9.6-4.5c1-0.4,1.8-1.1,2.5-1.9
		c14,4.1,28.3,5.8,36.7,0.2c11-6.1,19.3-17.2,23.8-24.4c0.3-0.5,0.6-0.9,0.9-1.4s0.6-0.9,0.8-1.4c1.2,6,1.8,12.1,1.8,18.2
		C330.6,156.7,330.5,157.8,330.5,158.9z"/>
	
		<ellipse transform="matrix(0.9239 -0.3827 0.3827 0.9239 -30.528 122.1414)" class="st0" cx="291.8" cy="137.8" rx="18.7" ry="18.7"/>
	<path class="st1" d="M257.3,161.5l-1.1,0.5l-8.2,3.9l-42.4,19.8c-1.4,0.6-3,0-3.6-1.3c-0.2-0.4-0.2-0.7-0.3-1.1v-48.4
		c0-1.5,1.2-2.7,2.7-2.7c0.4,0,0.8,0.1,1.1,0.3l51.8,24.2c1.3,0.6,1.9,2.2,1.3,3.6C258.4,160.8,257.9,161.2,257.3,161.5z"/>
	<rect x="79.5" y="93.1" class="st0" width="6" height="60.1"/>
	<rect x="76.5" y="135.1" class="st1" width="12" height="21"/>
	<polygon class="st1" points="76.5,135.1 79.5,127.8 85.5,127.8 88.5,135.1 	"/>
</g>
</svg>
